<?xml version="1.0" encoding="UTF-8"?>
<svg version="1.1" xmlns="http://www.w3.org/2000/svg" width="512" height="512">
<path d="M0 0 C3.70140411 3.14390867 6.05565893 6.76463304 7.58203125 11.34375 C7.58203125 20.58375 7.58203125 29.82375 7.58203125 39.34375 C34.31203125 39.34375 61.04203125 39.34375 88.58203125 39.34375 C88.58203125 30.10375 88.58203125 20.86375 88.58203125 11.34375 C93.09100352 2.32580546 93.09100352 2.32580546 96.14453125 0.40625 C96.72332031 0.02597656 97.30210937 -0.35429687 97.8984375 -0.74609375 C104.0743365 -4.08480481 113.52371543 -3.76745552 120.20703125 -1.9375 C125.66383949 0.6255463 129.36380255 4.71286176 131.58203125 10.34375 C133.172166 19.88455851 132.58203125 29.67133791 132.58203125 39.34375 C158.98203125 39.34375 185.38203125 39.34375 212.58203125 39.34375 C212.58203125 30.10375 212.58203125 20.86375 212.58203125 11.34375 C216.15058677 4.20663897 219.22620582 0.41227882 226.58203125 -2.65625 C229.31628392 -2.99311891 231.73246299 -3.18107155 234.45703125 -3.15625 C235.16375977 -3.15197998 235.87048828 -3.14770996 236.59863281 -3.14331055 C244.13834348 -2.89714787 247.82230232 -0.41597893 252.95703125 4.71875 C257.35231846 11.81882933 256.82672776 19.18332099 256.70703125 27.28125 C256.69800781 28.44205078 256.68898438 29.60285156 256.6796875 30.79882812 C256.65624287 33.64735108 256.62342647 36.49544078 256.58203125 39.34375 C257.47500412 39.33375725 257.47500412 39.33375725 258.38601685 39.32356262 C264.64905327 39.25657608 270.91198599 39.21169013 277.17529297 39.17895508 C279.50476219 39.16397923 281.83420375 39.1435914 284.16357422 39.11743164 C320.13293212 38.72394446 320.13293212 38.72394446 332.796875 50.3828125 C339.92240423 57.89314684 343.95496886 66.37938533 345.52856445 76.56762695 C345.68410703 77.49217084 345.8396496 78.41671473 345.99990559 79.36927509 C346.54911139 82.69095306 347.06759363 86.01651185 347.58203125 89.34375 C347.78982436 90.67135783 347.99783978 91.99893089 348.20605087 93.32647324 C349.85586782 103.87475577 351.44243587 114.4323456 353.02242231 124.99127388 C353.73480072 129.74605875 354.45148836 134.50019414 355.16775513 139.25439453 C356.55758082 148.48304811 357.94433694 157.71215988 359.32981753 166.94146669 C362.25090417 186.39999804 365.17637537 205.8578692 368.10693622 225.31497598 C368.43988833 227.52562307 368.77278739 229.73627815 369.10563397 231.94694114 C373.71618982 262.56689853 378.3908698 293.17607167 383.15698051 323.77220726 C384.04867754 329.49697322 384.93791161 335.22211995 385.82667542 340.94734192 C386.40237315 344.65476429 386.97815728 348.36217324 387.55395508 352.06958008 C387.76414849 353.42320882 387.76414849 353.42320882 387.97858822 354.8041836 C389.62694692 365.41700301 391.28561681 376.02810291 392.96049094 386.63677084 C394.00291591 393.24431056 395.03408729 399.85354612 396.05681348 406.46416318 C396.6411131 410.23785191 397.23053927 414.01053505 397.83490372 417.78106689 C405.13660775 463.39208254 405.13660775 463.39208254 397.58203125 475.34375 C397.13472656 476.05402344 396.68742187 476.76429688 396.2265625 477.49609375 C390.46798542 485.78659212 382.33746136 492.37504911 372.4039942 494.89664048 C368.92513604 495.44782794 365.51264369 495.48538787 362.00093651 495.47797108 C360.8626389 495.48149942 360.8626389 495.48149942 359.70134538 495.48509905 C357.1498714 495.49177396 354.59844852 495.49133128 352.04696655 495.49092102 C350.20257955 495.49422058 348.35819326 495.49794634 346.51380789 495.5020625 C341.43843524 495.51208004 336.3630744 495.51579889 331.28769326 495.51845181 C325.81648522 495.52235554 320.34528654 495.53193377 314.87408447 495.54066467 C301.65835328 495.56042621 288.44262133 495.57049449 275.22687906 495.57939246 C269.0040621 495.58377551 262.781246 495.58914224 256.55842972 495.59438133 C235.87411109 495.61139262 215.18979293 495.62591213 194.50546837 495.63313007 C193.1680471 495.63360483 191.83062584 495.63408072 190.49320457 495.63455774 C189.82997229 495.63479411 189.16674001 495.63503049 188.48340978 495.63527403 C185.1232172 495.63647521 181.76302461 495.63769066 178.40283203 495.63891602 C177.73599529 495.63915617 177.06915854 495.63939632 176.38211462 495.63964374 C154.76358054 495.64753598 133.14510133 495.67096694 111.52659121 495.70347196 C88.66453424 495.73778392 65.80250122 495.75748132 42.94041693 495.76077431 C30.48024607 495.76294004 18.02015587 495.7716981 5.560009 495.79723549 C-5.05038288 495.81893152 -15.6606745 495.82699823 -26.27108605 495.81726871 C-31.68407419 495.81272099 -37.0968554 495.8146379 -42.50981522 495.83403015 C-47.46820928 495.85164041 -52.42624512 495.85068128 -57.38464288 495.83513286 C-59.17539497 495.83275357 -60.96617172 495.83709695 -62.75688608 495.84896151 C-76.31103332 495.93318073 -87.61394169 494.57675069 -97.98046875 484.96875 C-98.78484375 484.1025 -99.58921875 483.23625 -100.41796875 482.34375 C-101.24296875 481.498125 -102.06796875 480.6525 -102.91796875 479.78125 C-110.46983069 470.33724573 -111.14322769 459.64182368 -111.05288696 448.06164551 C-111.05865787 446.43878575 -111.06660546 444.81593254 -111.07652318 443.19309282 C-111.09728689 438.76237356 -111.08712941 434.33219668 -111.07159209 429.90147614 C-111.06023934 425.11201041 -111.0777607 420.32263535 -111.0914917 415.53318787 C-111.11368685 406.16203138 -111.10893951 396.7910755 -111.09442849 387.41991127 C-111.08312159 379.80157637 -111.08161163 372.18329755 -111.08704758 364.56495667 C-111.08781374 363.47933025 -111.08857991 362.39370384 -111.08936929 361.27517965 C-111.09096797 359.06952582 -111.09258904 356.863872 -111.09423225 354.6582182 C-111.10847885 333.99160017 -111.09211409 313.32509316 -111.06523041 292.65849334 C-111.04289265 274.93812618 -111.04677308 257.2179228 -111.06982422 239.49755859 C-111.09660144 218.90325141 -111.10710565 198.30904145 -111.0917629 177.7147193 C-111.09017021 175.51732732 -111.08859835 173.31993534 -111.08704758 171.12254333 C-111.0862762 170.0414764 -111.08550482 168.96040946 -111.08471007 167.84658292 C-111.08039885 160.24027321 -111.08766718 152.63402535 -111.09944534 145.02772522 C-111.11349022 135.75403167 -111.10962857 126.48054963 -111.08304162 117.20688021 C-111.06993024 112.47821963 -111.06470528 107.7499113 -111.08128738 103.02125359 C-111.09625561 98.68716815 -111.08788632 94.35375939 -111.06139962 90.0197348 C-111.05584364 88.45731296 -111.0585899 86.8948332 -111.07077856 85.33244902 C-111.1618937 72.67585544 -108.70755039 62.27283782 -100.4296875 52.37890625 C-91.4873264 43.3323623 -80.93760529 39.38831419 -68.31860352 39.23022461 C-66.83218461 39.23038049 -65.34575885 39.23588295 -63.859375 39.24609375 C-63.07022202 39.2475087 -62.28106903 39.24892365 -61.46800232 39.25038147 C-58.9721176 39.25593445 -56.4763259 39.26847792 -53.98046875 39.28125 C-52.2779961 39.28627109 -50.57552202 39.29083293 -48.87304688 39.29492188 C-44.72131887 39.30588842 -40.56965953 39.32312009 -36.41796875 39.34375 C-36.4336792 38.6638501 -36.44938965 37.9839502 -36.46557617 37.28344727 C-36.52851932 34.15780185 -36.56714601 31.03229042 -36.60546875 27.90625 C-36.63060547 26.83697266 -36.65574219 25.76769531 -36.68164062 24.66601562 C-36.75452208 16.72193696 -36.03344338 9.50806718 -31.16796875 2.96875 C-23.34122179 -4.50223573 -9.36488962 -5.71278669 0 0 Z " fill="#E5E5E5" transform="translate(110.41796875,9.65625)"/>
<path d="M0 0 C3.70140411 3.14390867 6.05565893 6.76463304 7.58203125 11.34375 C7.58203125 20.58375 7.58203125 29.82375 7.58203125 39.34375 C34.31203125 39.34375 61.04203125 39.34375 88.58203125 39.34375 C88.58203125 30.10375 88.58203125 20.86375 88.58203125 11.34375 C93.09100352 2.32580546 93.09100352 2.32580546 96.14453125 0.40625 C96.72332031 0.02597656 97.30210937 -0.35429687 97.8984375 -0.74609375 C104.0743365 -4.08480481 113.52371543 -3.76745552 120.20703125 -1.9375 C125.66383949 0.6255463 129.36380255 4.71286176 131.58203125 10.34375 C133.172166 19.88455851 132.58203125 29.67133791 132.58203125 39.34375 C158.98203125 39.34375 185.38203125 39.34375 212.58203125 39.34375 C212.58203125 30.10375 212.58203125 20.86375 212.58203125 11.34375 C216.15058677 4.20663897 219.22620582 0.41227882 226.58203125 -2.65625 C229.31628392 -2.99311891 231.73246299 -3.18107155 234.45703125 -3.15625 C235.16375977 -3.15197998 235.87048828 -3.14770996 236.59863281 -3.14331055 C244.13834348 -2.89714787 247.82230232 -0.41597893 252.95703125 4.71875 C257.35231846 11.81882933 256.82672776 19.18332099 256.70703125 27.28125 C256.69800781 28.44205078 256.68898438 29.60285156 256.6796875 30.79882812 C256.65624287 33.64735108 256.62342647 36.49544078 256.58203125 39.34375 C257.47500412 39.33375725 257.47500412 39.33375725 258.38601685 39.32356262 C264.64905327 39.25657608 270.91198599 39.21169013 277.17529297 39.17895508 C279.50476219 39.16397923 281.83420375 39.1435914 284.16357422 39.11743164 C320.13293212 38.72394446 320.13293212 38.72394446 332.796875 50.3828125 C339.92240423 57.89314684 343.95496886 66.37938533 345.52856445 76.56762695 C345.68410703 77.49217084 345.8396496 78.41671473 345.99990559 79.36927509 C346.54911139 82.69095306 347.06759363 86.01651185 347.58203125 89.34375 C347.78982436 90.67135783 347.99783978 91.99893089 348.20605087 93.32647324 C349.85586782 103.87475577 351.44243587 114.4323456 353.02242231 124.99127388 C353.73480072 129.74605875 354.45148836 134.50019414 355.16775513 139.25439453 C356.55758082 148.48304811 357.94433694 157.71215988 359.32981753 166.94146669 C362.25090417 186.39999804 365.17637537 205.8578692 368.10693622 225.31497598 C368.43988833 227.52562307 368.77278739 229.73627815 369.10563397 231.94694114 C373.71618982 262.56689853 378.3908698 293.17607167 383.15698051 323.77220726 C384.04867754 329.49697322 384.93791161 335.22211995 385.82667542 340.94734192 C386.40237315 344.65476429 386.97815728 348.36217324 387.55395508 352.06958008 C387.76414849 353.42320882 387.76414849 353.42320882 387.97858822 354.8041836 C389.62694692 365.41700301 391.28561681 376.02810291 392.96049094 386.63677084 C394.00291591 393.24431056 395.03408729 399.85354612 396.05681348 406.46416318 C396.6411131 410.23785191 397.23053927 414.01053505 397.83490372 417.78106689 C405.13660775 463.39208254 405.13660775 463.39208254 397.58203125 475.34375 C397.13472656 476.05402344 396.68742187 476.76429688 396.2265625 477.49609375 C390.46798542 485.78659212 382.33746136 492.37504911 372.4039942 494.89664048 C368.92513604 495.44782794 365.51264369 495.48538787 362.00093651 495.47797108 C360.8626389 495.48149942 360.8626389 495.48149942 359.70134538 495.48509905 C357.1498714 495.49177396 354.59844852 495.49133128 352.04696655 495.49092102 C350.20257955 495.49422058 348.35819326 495.49794634 346.51380789 495.5020625 C341.43843524 495.51208004 336.3630744 495.51579889 331.28769326 495.51845181 C325.81648522 495.52235554 320.34528654 495.53193377 314.87408447 495.54066467 C301.65835328 495.56042621 288.44262133 495.57049449 275.22687906 495.57939246 C269.0040621 495.58377551 262.781246 495.58914224 256.55842972 495.59438133 C235.87411109 495.61139262 215.18979293 495.62591213 194.50546837 495.63313007 C193.1680471 495.63360483 191.83062584 495.63408072 190.49320457 495.63455774 C189.82997229 495.63479411 189.16674001 495.63503049 188.48340978 495.63527403 C185.1232172 495.63647521 181.76302461 495.63769066 178.40283203 495.63891602 C177.73599529 495.63915617 177.06915854 495.63939632 176.38211462 495.63964374 C154.76358054 495.64753598 133.14510133 495.67096694 111.52659121 495.70347196 C88.66453424 495.73778392 65.80250122 495.75748132 42.94041693 495.76077431 C30.48024607 495.76294004 18.02015587 495.7716981 5.560009 495.79723549 C-5.05038288 495.81893152 -15.6606745 495.82699823 -26.27108605 495.81726871 C-31.68407419 495.81272099 -37.0968554 495.8146379 -42.50981522 495.83403015 C-47.46820928 495.85164041 -52.42624512 495.85068128 -57.38464288 495.83513286 C-59.17539497 495.83275357 -60.96617172 495.83709695 -62.75688608 495.84896151 C-76.31103332 495.93318073 -87.61394169 494.57675069 -97.98046875 484.96875 C-98.78484375 484.1025 -99.58921875 483.23625 -100.41796875 482.34375 C-101.24296875 481.498125 -102.06796875 480.6525 -102.91796875 479.78125 C-110.46983069 470.33724573 -111.14322769 459.64182368 -111.05288696 448.06164551 C-111.05865787 446.43878575 -111.06660546 444.81593254 -111.07652318 443.19309282 C-111.09728689 438.76237356 -111.08712941 434.33219668 -111.07159209 429.90147614 C-111.06023934 425.11201041 -111.0777607 420.32263535 -111.0914917 415.53318787 C-111.11368685 406.16203138 -111.10893951 396.7910755 -111.09442849 387.41991127 C-111.08312159 379.80157637 -111.08161163 372.18329755 -111.08704758 364.56495667 C-111.08781374 363.47933025 -111.08857991 362.39370384 -111.08936929 361.27517965 C-111.09096797 359.06952582 -111.09258904 356.863872 -111.09423225 354.6582182 C-111.10847885 333.99160017 -111.09211409 313.32509316 -111.06523041 292.65849334 C-111.04289265 274.93812618 -111.04677308 257.2179228 -111.06982422 239.49755859 C-111.09660144 218.90325141 -111.10710565 198.30904145 -111.0917629 177.7147193 C-111.09017021 175.51732732 -111.08859835 173.31993534 -111.08704758 171.12254333 C-111.0862762 170.0414764 -111.08550482 168.96040946 -111.08471007 167.84658292 C-111.08039885 160.24027321 -111.08766718 152.63402535 -111.09944534 145.02772522 C-111.11349022 135.75403167 -111.10962857 126.48054963 -111.08304162 117.20688021 C-111.06993024 112.47821963 -111.06470528 107.7499113 -111.08128738 103.02125359 C-111.09625561 98.68716815 -111.08788632 94.35375939 -111.06139962 90.0197348 C-111.05584364 88.45731296 -111.0585899 86.8948332 -111.07077856 85.33244902 C-111.1618937 72.67585544 -108.70755039 62.27283782 -100.4296875 52.37890625 C-91.4873264 43.3323623 -80.93760529 39.38831419 -68.31860352 39.23022461 C-66.83218461 39.23038049 -65.34575885 39.23588295 -63.859375 39.24609375 C-63.07022202 39.2475087 -62.28106903 39.24892365 -61.46800232 39.25038147 C-58.9721176 39.25593445 -56.4763259 39.26847792 -53.98046875 39.28125 C-52.2779961 39.28627109 -50.57552202 39.29083293 -48.87304688 39.29492188 C-44.72131887 39.30588842 -40.56965953 39.32312009 -36.41796875 39.34375 C-36.4336792 38.6638501 -36.44938965 37.9839502 -36.46557617 37.28344727 C-36.52851932 34.15780185 -36.56714601 31.03229042 -36.60546875 27.90625 C-36.63060547 26.83697266 -36.65574219 25.76769531 -36.68164062 24.66601562 C-36.75452208 16.72193696 -36.03344338 9.50806718 -31.16796875 2.96875 C-23.34122179 -4.50223573 -9.36488962 -5.71278669 0 0 Z M-95.41796875 172.34375 C-95.41796875 176.63375 -95.41796875 180.92375 -95.41796875 185.34375 C-94.43637126 185.34613835 -93.45477377 185.34852671 -92.4434309 185.35098743 C-68.58337703 185.40972424 -44.72342461 185.4855708 -20.86348248 185.57946491 C-9.3250946 185.62447291 2.21326207 185.66387596 13.75170898 185.69018555 C23.80602187 185.71312516 33.86023639 185.74647776 43.91447133 185.79245156 C49.24046913 185.81643836 54.56636918 185.8351313 59.89241982 185.84136391 C64.90173829 185.84739015 69.91080648 185.86730034 74.9200325 185.89802551 C76.76190774 185.90684537 78.60381563 185.91052021 80.44571114 185.90875816 C82.9541564 185.90711562 85.46182937 185.92371647 87.97016907 185.94502258 C88.70460167 185.94017501 89.43903427 185.93532743 90.1957224 185.93033296 C93.07797117 185.97093483 95.10089648 186.02185133 97.53433514 187.64992046 C99.31734856 190.53255099 98.93332841 193.06497651 98.58203125 196.34375 C97.53433514 198.03757954 97.53433514 198.03757954 95.58203125 199.34375 C92.96656215 199.64396233 90.58708158 199.75975018 87.97016907 199.74247742 C86.7963864 199.75244766 86.7963864 199.75244766 85.59889096 199.76261932 C82.96854693 199.7813186 80.33865501 199.77863942 77.70825195 199.77612305 C75.8260534 199.78513599 73.94386075 199.79546205 72.06167603 199.80700684 C66.94423292 199.83465793 61.82690094 199.84387234 56.70939279 199.84986091 C51.36417475 199.85922352 46.01904042 199.88542513 40.6738739 199.90986633 C30.5485653 199.9535933 20.42327287 199.98210218 10.29789847 200.00518972 C-1.22799739 200.03220821 -12.75380931 200.07612174 -24.27964532 200.12147844 C-47.99237434 200.21441347 -71.70512968 200.2860536 -95.41796875 200.34375 C-95.53247879 233.29596168 -95.62055039 266.24812164 -95.6732954 299.20048698 C-95.67954873 303.09313097 -95.68602036 306.98577456 -95.69262695 310.87841797 C-95.69393851 311.65335471 -95.69525006 312.42829144 -95.69660135 313.22671111 C-95.71834234 325.7650778 -95.75775661 338.30332955 -95.80373273 350.84162812 C-95.85053384 363.71251048 -95.87827186 376.58333275 -95.88841122 389.45429671 C-95.89526284 397.3928061 -95.91688213 405.3309906 -95.95755108 413.26939996 C-95.987171 419.36243182 -95.9902337 425.45518577 -95.98350716 431.54829788 C-95.98488114 434.04358162 -95.99480597 436.53887781 -96.01399612 439.03408813 C-96.03895146 442.44670706 -96.03286341 445.85794711 -96.01924133 449.27059937 C-96.03380554 450.25311751 -96.04836975 451.23563565 -96.06337529 452.24792707 C-95.97908336 460.08500918 -93.81933907 466.66174842 -88.42812997 472.49776113 C-82.54496775 478.06362692 -76.67660221 480.71589612 -68.57187939 480.72686005 C-67.91677457 480.73181956 -67.26166976 480.73677908 -66.58671328 480.74188888 C-64.40007189 480.75480225 -62.21404545 480.74647432 -60.02738953 480.73815918 C-58.44042254 480.74305012 -56.85345911 480.74924087 -55.26650172 480.75661707 C-50.91196376 480.77301405 -46.55760687 480.77069915 -42.20304883 480.7652421 C-37.50420926 480.7625716 -32.80541794 480.77710412 -28.1065979 480.78933716 C-18.90325341 480.81039274 -9.69997192 480.81493192 -0.49660619 480.81314927 C6.98455677 480.81184167 14.46570009 480.81564572 21.94685936 480.82307434 C24.10178461 480.82517354 26.25670985 480.82727114 28.4116351 480.82936716 C29.48420551 480.83041069 30.55677591 480.83145422 31.66184845 480.83252937 C51.94779043 480.85143238 72.23369625 480.8503814 92.51964339 480.84356004 C111.07466369 480.837985 129.6295459 480.85880826 148.18453393 480.89192051 C167.23908483 480.92566018 186.29356958 480.94082546 205.34815091 480.93620348 C216.04490406 480.93395901 226.74152959 480.93919864 237.43825722 480.96409607 C246.54522779 480.98511277 255.65200078 480.9886975 264.75897948 480.96979648 C269.40433557 480.96064082 274.04932329 480.9594904 278.69465065 480.98015213 C282.95048226 480.99887186 287.20564405 480.99434771 291.46145024 480.97160631 C292.99774891 480.96742305 294.53409904 480.97161146 296.07034329 480.98520225 C306.50093021 481.07116587 314.02891685 479.66283898 322.39453125 473.15625 C328.26253091 465.61167901 330.32413342 458.80878438 330.19384766 449.34204102 C330.19951248 448.29201401 330.20517731 447.241987 330.21101379 446.16014099 C330.22441609 442.7222724 330.20364787 439.28547716 330.18359375 435.84765625 C330.1890972 433.4477415 330.19722475 431.04783147 330.20785522 428.64793396 C330.23067542 422.35427044 330.22654073 416.06095526 330.21405029 409.76727295 C330.19569359 399.66964994 330.20560981 389.5722276 330.23991013 379.47465324 C330.24602909 375.94742948 330.23274108 372.42063767 330.21792603 368.89344788 C330.22087227 366.74219652 330.2245259 364.59094598 330.22900391 362.43969727 C330.21971359 361.45631378 330.21042328 360.4729303 330.20085144 359.45974731 C330.20616379 358.56134628 330.21147614 357.66294525 330.21694946 356.73731995 C330.21412177 355.56630659 330.21412177 355.56630659 330.21123695 354.37163639 C330.6859798 351.7752519 331.47251616 350.89714065 333.58203125 349.34375 C339.6908479 348.68923393 339.6908479 348.68923393 342.27655125 350.58826447 C343.93069457 352.81259933 343.96127644 354.04988082 343.9697113 356.80651855 C343.98456825 358.17719482 343.98456825 358.17719482 343.99972534 359.57556152 C343.99522369 360.57607544 343.99072205 361.57658936 343.98608398 362.60742188 C343.99637886 364.19091431 343.99637886 364.19091431 344.00688171 365.80639648 C344.02523264 369.30856661 344.02129778 372.81029192 344.015625 376.3125 C344.02018526 378.74808905 344.02549036 381.18367681 344.0315094 383.6192627 C344.04045862 388.73385835 344.03799958 393.84829805 344.02807617 398.96289062 C344.01662833 405.4984935 344.03672493 412.03355273 344.06599331 418.56908417 C344.08440353 423.60505569 344.08405244 428.64089839 344.07835579 433.67689514 C344.07820293 436.08489236 344.08421793 438.4928985 344.09664726 440.90086365 C344.11163274 444.28255452 344.1008211 447.66326042 344.08374023 451.04492188 C344.0934082 452.02924194 344.10307617 453.01356201 344.11303711 454.02770996 C344.00988628 463.84906328 340.72524109 472.07787705 335.58203125 480.34375 C339.83205091 480.44356078 344.0814272 480.51565512 348.33227539 480.56347656 C349.77445377 480.58343751 351.21655285 480.61061663 352.65844727 480.64550781 C363.77792046 480.90759592 372.61322566 479.9334822 381.07421875 472.0234375 C385.96970935 466.5699117 387.17476217 461.34729853 386.8984375 454.109375 C384.52907706 425.91106059 379.24126866 397.71861037 374.46875 369.83984375 C371.90017428 354.77286316 369.55912829 339.69151518 367.45776367 324.55249023 C366.14209786 315.09752014 364.71983678 305.66179612 363.2593689 296.2281189 C361.80276123 286.80924525 360.3771166 277.38595323 358.9609375 267.9609375 C358.72965768 266.42268763 358.49836999 264.88443894 358.26707458 263.34619141 C357.32363762 257.07043484 356.38094537 250.79456667 355.43920898 244.51855469 C352.2270683 223.11514424 348.95127686 201.72303144 345.58203125 180.34375 C345.25203125 180.34375 344.92203125 180.34375 344.58203125 180.34375 C344.57779931 181.07796834 344.57356737 181.81218668 344.56920719 182.56865406 C344.46597713 200.42012861 344.35735088 218.27156282 344.24269199 236.12296772 C344.18737484 244.7557114 344.1338953 253.38845922 344.0847168 262.02124023 C344.04185651 269.54410979 343.99557384 277.0669491 343.9451527 284.58977193 C343.91856664 288.57435256 343.89371391 292.55892725 343.87295723 296.54354286 C343.85337635 300.29207171 343.8292282 304.04054307 343.80154037 307.78902054 C343.79217763 309.1664863 343.78449956 310.54396467 343.77861214 311.92144966 C343.77033789 313.7990429 343.75547225 315.67660368 343.74024963 317.55415344 C343.73057081 319.13180213 343.73057081 319.13180213 343.72069645 320.74132252 C343.58203125 323.34375 343.58203125 323.34375 342.58203125 326.34375 C341.14547271 326.42506463 339.70758295 326.48308559 338.26953125 326.53125 C337.46902344 326.56605469 336.66851562 326.60085938 335.84375 326.63671875 C333.58203125 326.34375 333.58203125 326.34375 331.96559429 325.1398344 C330.13011133 322.75708623 330.19855394 321.30550246 330.18330383 318.31343079 C330.16449661 316.75483337 330.16449661 316.75483337 330.14530945 315.16474915 C330.14746208 313.45571663 330.14746208 313.45571663 330.1496582 311.7121582 C330.13946655 310.51203094 330.1292749 309.31190369 330.11877441 308.07540894 C330.09373597 304.78423932 330.08191456 301.4935162 330.07592034 298.20228982 C330.06654725 294.76289774 330.04034479 291.32363527 330.01591492 287.88432312 C329.97221675 281.3714523 329.94369026 274.85860658 329.92059153 268.34563369 C329.89355756 260.93087868 329.84964501 253.51625384 329.80430281 246.10159171 C329.71140909 230.84904467 329.63975011 215.59647314 329.58203125 200.34375 C328.52828151 200.34136165 327.47453176 200.33897329 326.38885021 200.33651257 C300.77630892 200.27777873 275.16386216 200.20193401 249.55142498 200.10803509 C237.16555823 200.06302491 224.77972058 200.02362236 212.39379883 199.99731445 C201.60116197 199.9743766 190.80861677 199.94102598 180.01605254 199.89504844 C174.29881627 199.87105927 168.5816711 199.85236788 162.8643856 199.84613609 C157.48736733 199.84011093 152.11058232 199.82020463 146.73365021 199.78947449 C144.75631896 199.7806529 142.77895728 199.77698014 140.80160713 199.77874184 C138.10926102 199.78038374 135.41763525 199.7637887 132.72538757 199.74247742 C131.9364817 199.74732499 131.14757582 199.75217257 130.33476371 199.75716704 C125.07751197 199.68812449 125.07751197 199.68812449 122.59138203 197.96018696 C121.21995541 195.76389928 121.28291937 194.22332322 121.39453125 191.65625 C121.43513672 190.44388672 121.43513672 190.44388672 121.4765625 189.20703125 C121.51136719 188.59214844 121.54617187 187.97726563 121.58203125 187.34375 C125.3289449 186.09477878 128.82185859 186.19037132 132.72538757 186.18553162 C133.56507908 186.18059364 134.40477059 186.17565566 135.2699073 186.17056805 C138.09359176 186.15516636 140.91725345 186.14682519 143.7409668 186.13842773 C145.7610901 186.12885131 147.7812114 186.11884137 149.80133057 186.10842896 C155.29476652 186.08134829 160.78821108 186.06035585 166.28167701 186.04042697 C172.01924705 186.01858691 177.75679044 185.99118854 183.49433899 185.96437073 C194.36338487 185.91441704 205.23244553 185.86948814 216.10152036 185.82634836 C228.47380262 185.77699885 240.84605813 185.72207225 253.21831453 185.66666877 C278.67286182 185.55280764 304.12743477 185.4459776 329.58203125 185.34375 C329.58203125 181.05375 329.58203125 176.76375 329.58203125 172.34375 C189.33203125 172.34375 49.08203125 172.34375 -95.41796875 172.34375 Z " fill="#010000" transform="translate(110.41796875,9.65625)"/>
<path d="M0 0 C0.9029631 0.0028299 1.80592621 0.00565979 2.73625183 0.00857544 C5.60946109 0.01973643 8.4823543 0.04483353 11.35546875 0.0703125 C13.30793819 0.08034757 15.26041254 0.0894725 17.21289062 0.09765625 C21.98970441 0.11966242 26.76628306 0.15416419 31.54296875 0.1953125 C31.61732679 3.10203596 31.67181116 6.00684789 31.71484375 8.9140625 C31.73788574 9.73487305 31.76092773 10.55568359 31.78466797 11.40136719 C31.84781406 17.08451509 31.16766294 20.2137008 27.14453125 24.41796875 C23.20585176 28.78894233 21.34132063 34.88105086 21.10546875 40.6953125 C21.63404348 50.38016561 25.35224321 59.27325805 32.4296875 65.984375 C39.84111293 71.89604243 47.0791017 74.22930101 56.54296875 73.1953125 C64.60505906 71.7092129 72.07403454 68.40705918 77.3671875 61.98046875 C83.61025391 52.89552223 84.40277308 44.95878898 83.54296875 34.1953125 C81.91160427 27.79330921 78.85313859 24.36751631 74.54296875 19.1953125 C74.54296875 12.9253125 74.54296875 6.6553125 74.54296875 0.1953125 C101.27296875 0.1953125 128.00296875 0.1953125 155.54296875 0.1953125 C155.54296875 19.1953125 155.54296875 19.1953125 150.54296875 25.1953125 C145.61202982 32.52814145 145.64745637 40.63311762 146.54296875 49.1953125 C148.55928528 57.72501107 153.19048047 64.1328008 160.41796875 69.0078125 C168.11416416 73.45580376 175.78375208 73.96292809 184.41796875 72.5703125 C193.19984168 70.08096269 199.97615803 65.06288741 204.54296875 57.1953125 C208.56182585 49.69344591 208.43368412 41.49216123 207.54296875 33.1953125 C205.64899157 27.19771809 202.99248772 23.64483147 198.54296875 19.1953125 C198.54296875 12.9253125 198.54296875 6.6553125 198.54296875 0.1953125 C225.27296875 0.1953125 252.00296875 0.1953125 279.54296875 0.1953125 C279.54296875 19.1953125 279.54296875 19.1953125 274.54296875 25.1953125 C269.62093298 32.51490151 269.62295271 40.64566846 270.54296875 49.1953125 C271.44152526 52.53967255 272.72360846 55.26047558 274.54296875 58.1953125 C274.90519531 58.82953125 275.26742188 59.46375 275.640625 60.1171875 C280.33584034 67.56586811 288.14513949 71.28131961 296.54296875 73.1953125 C304.84445648 73.99868228 313.15257227 72.25369022 319.98046875 67.3203125 C326.67075112 61.74734816 331.63600058 54.03825214 332.54296875 45.1953125 C333.14640881 38.19540785 331.63931055 32.50997321 328.54296875 26.1953125 C327.490129 24.98069494 326.40692046 23.79163904 325.29296875 22.6328125 C321.73570218 18.39960609 322.22402976 14.1600801 322.37109375 8.91796875 C322.38350098 8.07947388 322.3959082 7.240979 322.40869141 6.3770752 C322.44097197 4.31625437 322.49029146 2.25571285 322.54296875 0.1953125 C330.19252633 0.06794503 337.84180778 -0.01927677 345.4921875 -0.0793457 C348.09157531 -0.10440199 350.69089328 -0.13845642 353.29003906 -0.18188477 C357.03858734 -0.24292434 360.78619953 -0.27098785 364.53515625 -0.29296875 C365.68660126 -0.31877518 366.83804626 -0.3445816 368.02438354 -0.37117004 C376.33764167 -0.37402317 383.18810982 1.1961473 389.45504761 6.95121765 C410.8944854 29.70721749 396.54296875 91.2151926 396.54296875 102.1953125 C256.29296875 102.1953125 116.04296875 102.1953125 -28.45703125 102.1953125 C-28.45703125 14.53777825 -28.45703125 14.53777825 -21.17578125 6.7578125 C-20.0775 5.984375 -20.0775 5.984375 -18.95703125 5.1953125 C-18.22484375 4.6590625 -17.49265625 4.1228125 -16.73828125 3.5703125 C-11.07400821 0.15623012 -6.46985916 -0.07667527 0 0 Z " fill="#E9463A" transform="translate(43.45703125,64.8046875)"/>
<path d="M0 0 C0.33 0 0.66 0 1 0 C1.13701324 0.90311417 1.27402649 1.80622833 1.41519165 2.73670959 C2.73737382 11.45129681 4.05995865 20.16582282 5.38294411 28.88028812 C6.06230451 33.35530097 6.74153423 37.83033355 7.42041016 42.30541992 C8.20952747 47.50706455 8.99914734 52.70863273 9.7890625 57.91015625 C9.92063562 58.77675558 10.05220875 59.64335491 10.18776894 60.53621483 C11.6638224 70.25533536 13.14721045 79.97326596 14.6472168 89.6887207 C14.78163429 90.55982892 14.91605179 91.43093714 15.05454254 92.32844257 C15.68998123 96.44532897 16.32664473 100.56201896 16.96560669 104.67835999 C18.47540534 114.43045661 19.90137136 124.19220925 21.26888084 133.96525955 C21.58005399 136.18788327 21.89279561 138.41028112 22.20614624 140.63259888 C22.30119131 141.30676912 22.39623638 141.98093937 22.49416161 142.67553902 C23.91051873 152.66036595 25.56310493 162.59713489 27.26147461 172.5378418 C28.65911357 180.7718429 29.90120656 189.01085625 30.92431641 197.30004883 C31.65585681 203.05959995 32.68864018 208.73375354 33.78308105 214.43505859 C35.2882323 222.36722858 36.51781261 230.33965239 37.73486328 238.3203125 C38.12787934 240.89385448 38.52658625 243.46647251 38.92578125 246.0390625 C41.39044899 262.03359071 41.39044899 262.03359071 42 270 C42.09023438 271.08410156 42.18046875 272.16820312 42.2734375 273.28515625 C42.57097729 281.42172512 40.86747154 286.71949752 35.390625 292.78125 C26.75727246 300.86016705 17.07906803 300.38736066 6 300.1875 C4.54298257 300.17242741 3.08595007 300.15874355 1.62890625 300.14648438 C-1.91437925 300.11367903 -5.45709171 300.06203907 -9 300 C-8.25943359 298.55367188 -8.25943359 298.55367188 -7.50390625 297.078125 C-6.85655763 295.80219148 -6.20943401 294.52614379 -5.5625 293.25 C-5.23701172 292.61578125 -4.91152344 291.9815625 -4.57617188 291.328125 C-2.12316817 286.47269499 -0.87959497 282.77602953 -0.85955811 277.36314392 C-0.85384796 276.4364238 -0.84813782 275.50970367 -0.84225464 274.55490112 C-0.84057785 273.04067062 -0.84057785 273.04067062 -0.83886719 271.49584961 C-0.83390228 270.42719162 -0.82893738 269.35853363 -0.82382202 268.25749207 C-0.80921592 264.72243609 -0.80240248 261.18742494 -0.796875 257.65234375 C-0.79112417 255.19902037 -0.78536643 252.74569701 -0.77960205 250.29237366 C-0.7690978 245.1502359 -0.76325073 240.00811377 -0.75976562 234.8659668 C-0.75426898 228.26582221 -0.73021346 221.66588268 -0.70179367 215.06580257 C-0.68320824 210.00016161 -0.67796397 204.93457058 -0.67642975 199.86889839 C-0.6733956 197.43474768 -0.66534161 195.000598 -0.65224457 192.56648064 C-0.63526294 189.16907786 -0.63704464 185.7721834 -0.64355469 182.37475586 C-0.6343399 181.36324463 -0.62512512 180.3517334 -0.6156311 179.30957031 C-0.62120026 178.38567001 -0.62676941 177.46176971 -0.63250732 176.50987244 C-0.63104076 175.70665526 -0.6295742 174.90343809 -0.6280632 174.075881 C-1.10248736 171.42799 -1.89431663 170.63761484 -4 169 C-5.32 168.34 -6.64 167.68 -8 167 C-7.67 160.73 -7.34 154.46 -7 148 C-7.66 147.67 -8.32 147.34 -9 147 C-6.69 146.67 -4.38 146.34 -2 146 C-0.94136537 142.8240961 -0.86225614 140.54775107 -0.84178162 137.21040344 C-0.8319928 136.00305542 -0.82220398 134.7957074 -0.81211853 133.55177307 C-0.8062144 132.21200601 -0.80040395 130.87223854 -0.79467773 129.5324707 C-0.78509865 128.1231762 -0.77508855 126.71388456 -0.76467896 125.30459595 C-0.73762708 121.47640165 -0.71661905 117.64819502 -0.69667697 113.81995797 C-0.67481917 109.82006851 -0.64742947 105.82021707 -0.62062073 101.82035828 C-0.57069106 94.24500358 -0.52575324 86.66962778 -0.48259836 79.09423178 C-0.43322834 70.47035926 -0.37830934 61.8465249 -0.32291877 53.22268927 C-0.20909451 35.48182827 -0.10225643 17.74093126 0 0 Z " fill="#B7B7B7" transform="translate(455,190)"/>
<path d="M0 0 C140.25 0 280.5 0 425 0 C425 4.29 425 8.58 425 13 C423.94625026 13.00423194 422.89250051 13.00846388 421.80681896 13.01282406 C396.19431788 13.11591102 370.58184554 13.22464563 344.96939373 13.33933926 C332.58352803 13.39467224 320.19765945 13.44815437 307.81176758 13.49731445 C297.01916749 13.54015535 286.22658862 13.58643312 275.43402129 13.63687855 C269.71680575 13.66348022 263.99959442 13.68833335 258.28235435 13.70907402 C252.90541708 13.72863438 247.5285202 13.75277641 242.15161896 13.78049088 C240.17427871 13.78986449 238.1969296 13.79753865 236.21957588 13.80341911 C233.52745815 13.81167499 230.83543858 13.82595028 228.14335632 13.84178162 C227.35445045 13.84275972 226.56554457 13.84373783 225.75273246 13.84474558 C222.57132435 13.86893275 220.04066351 13.9864455 217 15 C216.67 16.98 216.34 18.96 216 21 C209.4 20.67 202.8 20.34 196 20 C195.67 20.99 195.34 21.98 195 23 C194.87882813 22.43410156 194.75765625 21.86820313 194.6328125 21.28515625 C194.38144531 20.18494141 194.38144531 20.18494141 194.125 19.0625 C193.96257812 18.33160156 193.80015625 17.60070312 193.6328125 16.84765625 C193.17038477 14.79299706 193.17038477 14.79299706 191 14 C188.49401643 13.89238425 186.01508032 13.8451068 183.50839233 13.84178162 C182.72672498 13.83684364 181.94505763 13.83190566 181.13970339 13.82681805 C178.50638651 13.81139421 175.8730941 13.80306925 173.23974609 13.79467773 C171.35769941 13.78510305 169.4756549 13.77509321 167.59361267 13.76467896 C162.47200745 13.73757946 157.35039297 13.71659726 152.22875547 13.69667697 C146.88089009 13.67484847 141.53305342 13.64744447 136.18521118 13.62062073 C126.05278523 13.57065134 115.92034338 13.5257283 105.78788626 13.48259836 C94.25478764 13.43326222 82.72171782 13.37833068 71.18864703 13.32291877 C47.45912488 13.20903356 23.72957511 13.10220881 0 13 C0 8.71 0 4.42 0 0 Z " fill="#F57B78" transform="translate(15,182)"/>
<path d="M0 0 C4.29 0 8.58 0 13 0 C13.00146656 1.34105993 13.00293312 2.68211987 13.00444412 4.06381798 C13.04016598 35.91631083 13.09643581 67.76869463 13.17792095 99.62110152 C13.1879381 103.54378736 13.19778228 107.46647361 13.20751953 111.38916016 C13.2094609 112.17007812 13.21140228 112.95099609 13.21340248 113.75557823 C13.24440178 126.39087757 13.26139735 139.02615875 13.27319422 151.66148894 C13.28561652 164.63187126 13.31314223 177.60215851 13.35461307 190.5724808 C13.37971766 198.57230674 13.39311951 206.57197495 13.39142957 214.57184084 C13.39139623 220.71191055 13.41240273 226.85174648 13.44116783 232.991745 C13.4496768 235.50634518 13.45141003 238.02097898 13.44580269 240.53558731 C13.43915673 243.97438177 13.45709957 247.41222309 13.48101807 250.85092163 C13.47325765 251.84122167 13.46549723 252.83152171 13.45750165 253.85183084 C13.54077031 260.63518295 14.89856324 265.96162554 18 272 C18.27914621 272.63681686 18.55829243 273.27363372 18.84589761 273.92974806 C20.0463427 275.98995088 20.89396716 276.85026593 23 278 C28.02867357 278.89777403 33.01702379 278.80820617 38.10346985 278.75949097 C39.68347185 278.76623763 41.26346444 278.77561536 42.8434369 278.78740036 C47.18780218 278.81217606 51.53138366 278.79956258 55.87575018 278.78093672 C60.55947083 278.76737349 65.24305026 278.78835117 69.92674255 278.80516052 C78.04239481 278.82954685 86.15781664 278.83198773 94.27349281 278.81957626 C106.00738634 278.80166303 117.74105406 278.81676409 129.47492983 278.83995558 C148.51170588 278.8766829 167.54839848 278.88666364 186.58520508 278.87988281 C205.07904906 278.87335254 223.57281849 278.87938248 242.06665039 278.90234375 C243.77622843 278.90445973 243.77622843 278.90445973 245.5203434 278.90661846 C251.23790572 278.91377283 256.9554677 278.92117454 262.67302954 278.92869925 C310.11535872 278.99081656 357.55763485 279.00955154 405 279 C405 279.33 405 279.66 405 280 C356.12352444 280.11444389 307.24706242 280.20254815 258.37047923 280.25532665 C252.60017604 280.26158018 246.82987311 280.26805179 241.05957031 280.2746582 C239.33642494 280.27662553 239.33642494 280.27662553 237.57846855 280.2786326 C218.97775329 280.30038924 200.3771153 280.33981223 181.77644588 280.38576398 C162.69049297 280.43252135 143.60458052 280.46029389 124.51857269 280.47044247 C112.74142657 280.4773031 100.96449883 280.49897193 89.18741994 280.53958233 C81.11147041 280.56601176 73.03563379 280.57400051 64.95964415 280.56750689 C60.30014239 280.56430434 55.64102227 280.56921414 50.98158836 280.59602737 C46.71255376 280.6204143 42.44415631 280.62155253 38.17509197 280.60449447 C36.63386159 280.60238721 35.09259095 280.60868397 33.55143942 280.62441591 C23.68690115 280.71922592 15.38237539 280.01530753 7.86452591 273.01016122 C0.90165502 265.72606275 -0.44685061 259.05292042 -0.36076355 249.28761292 C-0.36332682 248.21990833 -0.3658901 247.15220374 -0.36853105 246.05214447 C-0.37346563 242.48065344 -0.35698086 238.90958674 -0.34057617 235.33813477 C-0.33972983 232.77555857 -0.34020518 230.21298165 -0.34190369 227.65040588 C-0.34258646 222.1365324 -0.33408689 216.62279514 -0.31719017 211.10894966 C-0.29277659 203.13695224 -0.28499249 195.16500627 -0.2812262 187.19297551 C-0.27466541 174.25793425 -0.25471437 161.32294985 -0.22631836 148.38793945 C-0.19876814 135.82511682 -0.17753928 123.26230965 -0.16479492 110.69946289 C-0.16400675 109.9246831 -0.16321858 109.14990332 -0.16240653 108.35164536 C-0.15849133 104.46468137 -0.15470022 100.57771727 -0.15097082 96.6907531 C-0.11988651 64.46046037 -0.06683737 32.23023903 0 0 Z " fill="#CBCAC9" transform="translate(15,210)"/>
<path d="M0 0 C0.33 0 0.66 0 1 0 C2.55036474 10.12715218 4.09793353 20.25472737 5.64200497 30.38284111 C6.35918346 35.08649055 7.07729824 39.78999295 7.79760742 44.49316406 C8.4936385 49.03805048 9.18713872 53.58331672 9.87893867 58.12884903 C10.14236248 59.85677775 10.40667422 61.58457137 10.67191887 63.31222153 C11.98356955 71.85922475 13.26319413 80.37975311 14 89 C13.34 89 12.68 89 12 89 C12.00368717 89.9854524 12.00737434 90.97090481 12.01117325 91.98621941 C12.10003456 115.98214475 12.16573297 139.97804871 12.20724869 163.97410393 C12.22785984 175.57849862 12.25595289 187.18278452 12.30175781 198.78710938 C12.34166974 208.90332524 12.36744333 219.01946229 12.37635398 229.1357547 C12.38156131 234.49056451 12.39377051 239.84514888 12.42292023 245.19988632 C12.45015804 250.24448936 12.45842806 255.28877501 12.45243073 260.3334446 C12.45352722 262.18047755 12.46143106 264.02752159 12.4768219 265.87449074 C12.5815323 279.09346014 11.72035435 287.53557478 3 298 C9.27 298.33 15.54 298.66 22 299 C22 299.33 22 299.66 22 300 C11.77 300 1.54 300 -9 300 C-5.5625 293.25 -5.5625 293.25 -4.48266602 291.14550781 C-2.06488754 286.35281683 -0.87931711 282.70096549 -0.85955811 277.36314392 C-0.85384796 276.4364238 -0.84813782 275.50970367 -0.84225464 274.55490112 C-0.84057785 273.04067062 -0.84057785 273.04067062 -0.83886719 271.49584961 C-0.83390228 270.42719162 -0.82893738 269.35853363 -0.82382202 268.25749207 C-0.80921592 264.72243609 -0.80240248 261.18742494 -0.796875 257.65234375 C-0.79112417 255.19902037 -0.78536643 252.74569701 -0.77960205 250.29237366 C-0.7690978 245.1502359 -0.76325073 240.00811377 -0.75976562 234.8659668 C-0.75426898 228.26582221 -0.73021346 221.66588268 -0.70179367 215.06580257 C-0.68320824 210.00016161 -0.67796397 204.93457058 -0.67642975 199.86889839 C-0.6733956 197.43474768 -0.66534161 195.000598 -0.65224457 192.56648064 C-0.63526294 189.16907786 -0.63704464 185.7721834 -0.64355469 182.37475586 C-0.6343399 181.36324463 -0.62512512 180.3517334 -0.6156311 179.30957031 C-0.62120026 178.38567001 -0.62676941 177.46176971 -0.63250732 176.50987244 C-0.63104076 175.70665526 -0.6295742 174.90343809 -0.6280632 174.075881 C-1.10248736 171.42799 -1.89431663 170.63761484 -4 169 C-5.32 168.34 -6.64 167.68 -8 167 C-7.67 160.73 -7.34 154.46 -7 148 C-7.66 147.67 -8.32 147.34 -9 147 C-6.69 146.67 -4.38 146.34 -2 146 C-0.94136537 142.8240961 -0.86225614 140.54775107 -0.84178162 137.21040344 C-0.8319928 136.00305542 -0.82220398 134.7957074 -0.81211853 133.55177307 C-0.8062144 132.21200601 -0.80040395 130.87223854 -0.79467773 129.5324707 C-0.78509865 128.1231762 -0.77508855 126.71388456 -0.76467896 125.30459595 C-0.73762708 121.47640165 -0.71661905 117.64819502 -0.69667697 113.81995797 C-0.67481917 109.82006851 -0.64742947 105.82021707 -0.62062073 101.82035828 C-0.57069106 94.24500358 -0.52575324 86.66962778 -0.48259836 79.09423178 C-0.43322834 70.47035926 -0.37830934 61.8465249 -0.32291877 53.22268927 C-0.20909451 35.48182827 -0.10225643 17.74093126 0 0 Z " fill="#A6A6A6" transform="translate(455,190)"/>
<path d="M0 0 C-0.47050781 0.59425781 -0.94101562 1.18851562 -1.42578125 1.80078125 C-2.04839844 2.62964844 -2.67101562 3.45851563 -3.3125 4.3125 C-3.92738281 5.11300781 -4.54226562 5.91351563 -5.17578125 6.73828125 C-18.76621953 31.03810131 -10.91414615 93.21754567 -11 100 C125.29 100 261.58 100 402 100 C402 100.33 402 100.66 402 101 C261.75 101 121.5 101 -23 101 C-23 13.34246575 -23 13.34246575 -15.71875 5.5625 C-14.62046875 4.7890625 -14.62046875 4.7890625 -13.5 4 C-12.7678125 3.46375 -12.035625 2.9275 -11.28125 2.375 C-7.33723459 -0.00221477 -4.52070243 -1.67433423 0 0 Z " fill="#CF3425" transform="translate(38,66)"/>
<path d="M0 0 C0.99 0.66 1.98 1.32 3 2 C3.3742218 4.96044922 3.3742218 4.96044922 3.37231445 8.8046875 C3.37596512 9.50402405 3.37961578 10.2033606 3.38337708 10.92388916 C3.39149921 13.24117129 3.37785941 15.55775774 3.36328125 17.875 C3.36276284 19.48160807 3.3632798 21.08821678 3.36479187 22.69482422 C3.36470207 26.06422375 3.35425754 29.43338439 3.33618164 32.80273438 C3.31349408 37.12741121 3.31294951 41.45173878 3.31969929 45.77645874 C3.32303658 49.09467691 3.31641373 52.41281506 3.30657005 55.73101807 C3.30271362 57.32586244 3.30157167 58.92071571 3.3031559 60.51556396 C3.30352568 62.74232013 3.29093141 64.96862409 3.2746582 67.1953125 C3.27005081 68.46391113 3.26544342 69.73250977 3.26069641 71.03955078 C3 74 3 74 1 76 C-1.09375 76.30078125 -1.09375 76.30078125 -3.5 76.3125 C-4.2940625 76.32925781 -5.088125 76.34601563 -5.90625 76.36328125 C-6.5971875 76.24339844 -7.288125 76.12351562 -8 76 C-10.42865455 72.35701818 -10.25837117 70.62161049 -10.2746582 66.28125 C-10.27976913 65.60288086 -10.28488007 64.92451172 -10.29014587 64.22558594 C-10.3040441 61.98363418 -10.3030852 59.7419897 -10.30078125 57.5 C-10.30466766 55.94205613 -10.30900221 54.38411331 -10.31376648 52.82617188 C-10.32122887 49.56116297 -10.32093701 46.2962622 -10.31567383 43.03125 C-10.30987474 38.84451427 -10.32682034 34.65822028 -10.3500185 30.47155762 C-10.36473932 27.25453091 -10.36562989 24.03761106 -10.36250877 20.82055664 C-10.36302268 19.27676518 -10.36827337 17.73296784 -10.37832069 16.18920898 C-10.39063826 14.03209575 -10.38392295 11.87584904 -10.37231445 9.71875 C-10.37294388 8.49091797 -10.3735733 7.26308594 -10.3742218 5.99804688 C-10 3 -10 3 -8.69548035 1.09960938 C-5.86253946 -0.73770379 -3.26730993 -0.2917241 0 0 Z " fill="#56585E" transform="translate(224,22)"/>
<path d="M0 0 C2.66006233 0.48987286 3.36372273 1.18443752 4.97265625 3.36328125 C5.35360718 6.36132812 5.35360718 6.36132812 5.36083984 10.08203125 C5.3660968 10.76040039 5.37135376 11.43876953 5.37677002 12.13769531 C5.3899726 14.3797916 5.38123163 16.62117776 5.37109375 18.86328125 C5.37311443 20.42122535 5.37602581 21.97916852 5.37979126 23.53710938 C5.38421494 26.80217494 5.37778234 30.0669943 5.36376953 33.33203125 C5.34667738 37.51879474 5.35651836 41.70498132 5.37448692 45.89172363 C5.38532371 49.10876824 5.38187896 52.3256759 5.37410355 55.54272461 C5.37210124 57.08650785 5.37456191 58.6303035 5.38154221 60.17407227 C5.38915526 62.33122729 5.37755597 64.48744603 5.36083984 66.64453125 C5.35845306 67.87236328 5.35606628 69.10019531 5.35360718 70.36523438 C4.97265625 73.36328125 4.97265625 73.36328125 3.57168579 75.26049805 C0.51700703 77.36718109 -2.42785812 76.64895471 -6.02734375 76.36328125 C-8.88418981 73.50643519 -8.28111424 71.55973204 -8.28613281 67.55859375 C-8.28963745 66.8592572 -8.29314209 66.15992065 -8.29675293 65.43939209 C-8.30557251 63.12225487 -8.29972045 60.8054217 -8.29296875 58.48828125 C-8.29431534 56.88167258 -8.29625582 55.2750643 -8.29876709 53.66845703 C-8.30171865 50.29911423 -8.29741972 46.92987738 -8.28808594 43.56054688 C-8.27669133 39.23588631 -8.28325064 34.91147396 -8.29523087 30.58682251 C-8.30244863 27.26861695 -8.30016194 23.9504705 -8.29497528 20.63226318 C-8.29363855 19.03741425 -8.29528733 17.44256 -8.29993439 15.84771729 C-8.30499831 13.62098927 -8.29729163 11.39466649 -8.28613281 9.16796875 C-8.28454163 7.89937012 -8.28295044 6.63077148 -8.28131104 5.32373047 C-7.80325007 -0.24893689 -4.95698082 0.12045 0 0 Z " fill="#55575D" transform="translate(98.02734375,21.63671875)"/>
<path d="M0 0 C2.85684606 2.85684606 2.25377049 4.80354921 2.25878906 8.8046875 C2.2622937 9.50402405 2.26579834 10.2033606 2.26940918 10.92388916 C2.27822876 13.24102638 2.2723767 15.55785955 2.265625 17.875 C2.26697159 19.48160867 2.26891207 21.08821695 2.27142334 22.69482422 C2.2743749 26.06416702 2.27007597 29.43340387 2.26074219 32.80273438 C2.24934758 37.12739494 2.25590689 41.45180729 2.26788712 45.77645874 C2.27510488 49.0946643 2.27281819 52.41281075 2.26763153 55.73101807 C2.2662948 57.325867 2.26794358 58.92072125 2.27259064 60.51556396 C2.27765456 62.74229198 2.26994788 64.96861476 2.25878906 67.1953125 C2.25640228 69.09821045 2.25640228 69.09821045 2.25396729 71.03955078 C2 74 2 74 0 76 C-7.17438005 76.56939524 -7.17438005 76.56939524 -9.59902954 74.8972168 C-11.68920415 72.06666862 -11.38140129 69.77027362 -11.38818359 66.28125 C-11.39344055 65.60288086 -11.39869751 64.92451172 -11.40411377 64.22558594 C-11.41731635 61.98348965 -11.40857538 59.74210349 -11.3984375 57.5 C-11.40045818 55.9420559 -11.40336956 54.38411273 -11.40713501 52.82617188 C-11.41155869 49.56110631 -11.40512609 46.29628695 -11.39111328 43.03125 C-11.37402113 38.84448651 -11.38386211 34.65829993 -11.40183067 30.47155762 C-11.41266746 27.25451301 -11.40922271 24.03760535 -11.4014473 20.82055664 C-11.39944499 19.2767734 -11.40190566 17.73297775 -11.40888596 16.18920898 C-11.41649901 14.03205396 -11.40489972 11.87583522 -11.38818359 9.71875 C-11.38579681 8.49091797 -11.38341003 7.26308594 -11.38095093 5.99804688 C-11 3 -11 3 -9.59902954 1.1027832 C-6.54435078 -1.00389984 -3.59948563 -0.28567346 0 0 Z " fill="#3F4153" transform="translate(349,22)"/>
<path d="M0 0 C0.67151596 -0.00241196 1.34303192 -0.00482391 2.03489685 -0.00730896 C3.44772272 -0.00633366 4.86058831 0.00698484 6.27319336 0.03198242 C8.43149809 0.06637286 10.58572118 0.05261293 12.74414062 0.03320312 C14.12111111 0.04010044 15.49807107 0.04977182 16.875 0.0625 C18.12095947 0.07337646 19.36691895 0.08425293 20.65063477 0.09545898 C24.41918156 0.71969329 25.61631701 1.59761816 27.87109375 4.62890625 C28.43359375 7.56640625 28.43359375 7.56640625 27.87109375 10.62890625 C25.26714312 13.91233234 23.77843512 15.45314923 19.61303711 16.26000977 C18.40784424 16.25928467 17.20265137 16.25855957 15.9609375 16.2578125 C13.9819043 16.26071289 13.9819043 16.26071289 11.96289062 16.26367188 C11.280896 16.25118408 10.59890137 16.23869629 9.89624023 16.22583008 C7.81031824 16.19143469 5.72861897 16.20520092 3.64257812 16.22460938 C-6.46500326 16.15047064 -6.46500326 16.15047064 -9.48608398 13.77709961 C-11.65819852 10.93679113 -12.20202189 9.2115728 -12.12890625 5.62890625 C-8.43472757 0.86910753 -5.93792755 -0.00345251 0 0 Z " fill="#040404" transform="translate(357.12890625,308.37109375)"/>
<path d="M0 0 C0.67151596 -0.00241196 1.34303192 -0.00482391 2.03489685 -0.00730896 C3.44772272 -0.00633366 4.86058831 0.00698484 6.27319336 0.03198242 C8.43149809 0.06637286 10.58572118 0.05261293 12.74414062 0.03320312 C14.12111111 0.04010044 15.49807107 0.04977182 16.875 0.0625 C18.12095947 0.07337646 19.36691895 0.08425293 20.65063477 0.09545898 C24.41918156 0.71969329 25.61631701 1.59761816 27.87109375 4.62890625 C28.43359375 7.56640625 28.43359375 7.56640625 27.87109375 10.62890625 C25.26714312 13.91233234 23.77843512 15.45314923 19.61303711 16.26000977 C18.40784424 16.25928467 17.20265137 16.25855957 15.9609375 16.2578125 C13.9819043 16.26071289 13.9819043 16.26071289 11.96289062 16.26367188 C11.280896 16.25118408 10.59890137 16.23869629 9.89624023 16.22583008 C7.81031824 16.19143469 5.72861897 16.20520092 3.64257812 16.22460938 C-6.46500326 16.15047064 -6.46500326 16.15047064 -9.48608398 13.77709961 C-11.65819852 10.93679113 -12.20202189 9.2115728 -12.12890625 5.62890625 C-8.43472757 0.86910753 -5.93792755 -0.00345251 0 0 Z " fill="#040404" transform="translate(82.12890625,308.37109375)"/>
<path d="M0 0 C1.26972656 0.00257813 2.53945312 0.00515625 3.84765625 0.0078125 C5.16636719 0.03617187 6.48507813 0.06453125 7.84375 0.09375 C9.16246094 0.09117187 10.48117188 0.08859375 11.83984375 0.0859375 C23.95897436 0.20897436 23.95897436 0.20897436 28.34375 4.59375 C28.71875 7.34375 28.71875 7.34375 28.34375 10.59375 C25.75217151 13.89440518 24.25481869 15.41727098 20.08569336 16.22485352 C18.88050049 16.22412842 17.67530762 16.22340332 16.43359375 16.22265625 C14.45456055 16.22555664 14.45456055 16.22555664 12.43554688 16.22851562 C11.75355225 16.21602783 11.07155762 16.20354004 10.36889648 16.19067383 C8.28297449 16.15627844 6.20127522 16.17004467 4.11523438 16.18945312 C-5.99234701 16.11531439 -5.99234701 16.11531439 -9.01342773 13.74194336 C-11.18554227 10.90163488 -11.72936564 9.17641655 -11.65625 5.59375 C-8.06658743 1.03027812 -5.74910936 -0.03523131 0 0 Z " fill="#040404" transform="translate(81.65625,429.40625)"/>
<path d="M0 0 C0.67293091 -0.0038269 1.34586182 -0.00765381 2.03918457 -0.01159668 C3.4579417 -0.0143113 4.87674927 -0.00698134 6.29541016 0.00976562 C8.46240203 0.03118725 10.62607951 0.00995462 12.79296875 -0.015625 C14.17448646 -0.01298164 15.5560021 -0.00785647 16.9375 0 C18.18982422 0.00451172 19.44214844 0.00902344 20.73242188 0.01367188 C24.52822832 0.62072601 25.72777645 1.45437957 27.96875 4.53125 C28.51858691 8.38010834 28.70289989 10.52325769 26.37695312 13.71679688 C23.12390317 16.16779721 20.98530589 16.04791707 16.9375 16.0625 C16.26456909 16.0663269 15.59163818 16.07015381 14.89831543 16.07409668 C13.4795583 16.0768113 12.06075073 16.06948134 10.64208984 16.05273438 C8.47509797 16.03131275 6.31142049 16.05254538 4.14453125 16.078125 C2.76301354 16.07548164 1.3814979 16.07035647 0 16.0625 C-1.25232422 16.05798828 -2.50464844 16.05347656 -3.79492188 16.04882812 C-7.59072832 15.44177399 -8.79027645 14.60812043 -11.03125 11.53125 C-11.58108691 7.68239166 -11.76539989 5.53924231 -9.43945312 2.34570312 C-6.18640317 -0.10529721 -4.04780589 0.01458293 0 0 Z " fill="#030303" transform="translate(150.03125,429.46875)"/>
<path d="M0 0 C1.82821289 0.00870117 1.82821289 0.00870117 3.69335938 0.01757812 C14.05817817 0.15971771 14.05817817 0.15971771 18.4375 2.4375 C20.76499345 5.92874017 20.94049316 7.32972251 20.4375 11.4375 C18.8671875 13.59570312 18.8671875 13.59570312 16.4375 15.4375 C13.109375 15.95507812 13.109375 15.95507812 9.1875 15.96875 C8.49237305 15.9725769 7.79724609 15.97640381 7.08105469 15.98034668 C5.61521959 15.9830618 4.14933572 15.97572835 2.68359375 15.95898438 C0.44421025 15.93756419 -1.79196587 15.95879443 -4.03125 15.984375 C-5.45834039 15.98173165 -6.88542879 15.9766065 -8.3125 15.96875 C-9.60671875 15.96423828 -10.9009375 15.95972656 -12.234375 15.95507812 C-16.08575044 15.35612596 -17.2759729 14.53782799 -19.5625 11.4375 C-20.1875 8.5 -20.1875 8.5 -19.5625 5.4375 C-14.19725476 -1.084955 -7.95849945 -0.2153228 0 0 Z " fill="#070707" transform="translate(364.5625,247.5625)"/>
<path d="M0 0 C1.82821289 -0.00386719 1.82821289 -0.00386719 3.69335938 -0.0078125 C10.75961224 0.06971084 15.24661922 0.30911922 20.4375 5.5 C20.89153489 8.98093418 20.9590892 10.78184173 18.8671875 13.66210938 C15.5500192 16.17131787 13.32009194 16.01684355 9.1875 16.03125 C8.49237305 16.0350769 7.79724609 16.03890381 7.08105469 16.04284668 C5.61521959 16.0455618 4.14933572 16.03822835 2.68359375 16.02148438 C0.44421025 16.00006419 -1.79196587 16.02129443 -4.03125 16.046875 C-5.45834039 16.04423165 -6.88542879 16.0391065 -8.3125 16.03125 C-9.60671875 16.02673828 -10.9009375 16.02222656 -12.234375 16.01757812 C-16.08575044 15.41862596 -17.2759729 14.60032799 -19.5625 11.5 C-20.1875 8.5625 -20.1875 8.5625 -19.5625 5.5 C-14.20070641 -1.00870131 -7.95352517 -0.18565258 0 0 Z " fill="#080808" transform="translate(364.5625,368.5)"/>
<path d="M0 0 C1.82821289 -0.00386719 1.82821289 -0.00386719 3.69335938 -0.0078125 C10.75961224 0.06971084 15.24661922 0.30911922 20.4375 5.5 C20.89153489 8.98093418 20.9590892 10.78184173 18.8671875 13.66210938 C15.5500192 16.17131787 13.32009194 16.01684355 9.1875 16.03125 C8.49237305 16.0350769 7.79724609 16.03890381 7.08105469 16.04284668 C5.61521959 16.0455618 4.14933572 16.03822835 2.68359375 16.02148438 C0.44421025 16.00006419 -1.79196587 16.02129443 -4.03125 16.046875 C-5.45834039 16.04423165 -6.88542879 16.0391065 -8.3125 16.03125 C-9.60671875 16.02673828 -10.9009375 16.02222656 -12.234375 16.01757812 C-16.08575044 15.41862596 -17.2759729 14.60032799 -19.5625 11.5 C-20.1875 8.5625 -20.1875 8.5625 -19.5625 5.5 C-14.20070641 -1.00870131 -7.95352517 -0.18565258 0 0 Z " fill="#070707" transform="translate(89.5625,368.5)"/>
<path d="M0 0 C0.67293091 -0.0038269 1.34586182 -0.00765381 2.03918457 -0.01159668 C3.4579417 -0.0143113 4.87674927 -0.00698134 6.29541016 0.00976562 C8.46240203 0.03118725 10.62607951 0.00995462 12.79296875 -0.015625 C14.17448646 -0.01298164 15.5560021 -0.00785647 16.9375 0 C18.18982422 0.00451172 19.44214844 0.00902344 20.73242188 0.01367188 C24.518834 0.6192236 25.71239037 1.4830881 27.96875 4.53125 C28.60215543 8.25250687 28.32375807 9.93976953 26.37695312 13.18334961 C23.16335593 16.31647656 21.37386394 16.16272491 16.9375 16.16015625 C16.26456909 16.16256821 15.59163818 16.16498016 14.89831543 16.16746521 C13.47951345 16.16648833 12.06067262 16.15313187 10.64208984 16.12817383 C8.47491522 16.09384765 6.31181797 16.10751889 4.14453125 16.12695312 C2.76300354 16.1200543 1.38148632 16.11038155 0 16.09765625 C-1.25232422 16.08677979 -2.50464844 16.07590332 -3.79492188 16.06469727 C-7.58287454 15.44032516 -8.79140775 14.60347534 -11.03125 11.53125 C-11.58108691 7.68239166 -11.76539989 5.53924231 -9.43945312 2.34570312 C-6.18640317 -0.10529721 -4.04780589 0.01458293 0 0 Z " fill="#030303" transform="translate(288.03125,429.46875)"/>
<path d="M0 0 C0.67293091 -0.0038269 1.34586182 -0.00765381 2.03918457 -0.01159668 C3.4579417 -0.0143113 4.87674927 -0.00698134 6.29541016 0.00976562 C8.46240203 0.03118725 10.62607951 0.00995462 12.79296875 -0.015625 C14.17448646 -0.01298164 15.5560021 -0.00785647 16.9375 0 C18.18982422 0.00451172 19.44214844 0.00902344 20.73242188 0.01367188 C24.52822832 0.62072601 25.72777645 1.45437957 27.96875 4.53125 C28.51858691 8.38010834 28.70289989 10.52325769 26.37695312 13.71679688 C23.12390317 16.16779721 20.98530589 16.04791707 16.9375 16.0625 C16.26456909 16.0663269 15.59163818 16.07015381 14.89831543 16.07409668 C13.4795583 16.0768113 12.06075073 16.06948134 10.64208984 16.05273438 C8.47509797 16.03131275 6.31142049 16.05254538 4.14453125 16.078125 C2.76301354 16.07548164 1.3814979 16.07035647 0 16.0625 C-1.25232422 16.05798828 -2.50464844 16.05347656 -3.79492188 16.04882812 C-7.59072832 15.44177399 -8.79027645 14.60812043 -11.03125 11.53125 C-11.58108691 7.68239166 -11.76539989 5.53924231 -9.43945312 2.34570312 C-6.18640317 -0.10529721 -4.04780589 0.01458293 0 0 Z " fill="#020202" transform="translate(219.03125,429.46875)"/>
<path d="M0 0 C1.83691406 -0.0009668 1.83691406 -0.0009668 3.7109375 -0.00195312 C5.61746094 0.02801758 5.61746094 0.02801758 7.5625 0.05859375 C8.83351563 0.05150391 10.10453125 0.04441406 11.4140625 0.03710938 C21.9841668 0.10943114 21.9841668 0.10943114 26.5625 3.49609375 C27.98291821 6.33693016 27.87702272 8.35086653 27.5625 11.49609375 C25.99829102 13.66040039 25.99829102 13.66040039 23.5625 15.49609375 C20.21850586 15.99780273 20.21850586 15.99780273 16.27734375 15.9921875 C15.57984512 15.99364273 14.8823465 15.99509796 14.16371155 15.99659729 C12.69365244 15.99494164 11.2235754 15.98341752 9.75366211 15.96264648 C7.50364685 15.93364076 5.25598197 15.94205175 3.00585938 15.95507812 C1.57550939 15.94884167 0.14516683 15.94045145 -1.28515625 15.9296875 C-2.58461182 15.91993896 -3.88406738 15.91019043 -5.22290039 15.90014648 C-8.4375 15.49609375 -8.4375 15.49609375 -10.35327148 14.21508789 C-11.8861442 11.78478913 -11.9009447 9.34910221 -12.03125 6.53125 C-10.38296877 0.8815492 -5.18152347 -0.00861091 0 0 Z " fill="#070707" transform="translate(288.4375,368.50390625)"/>
<path d="M0 0 C0.67293091 -0.0038269 1.34586182 -0.00765381 2.03918457 -0.01159668 C3.4579417 -0.0143113 4.87674927 -0.00698134 6.29541016 0.00976562 C8.46240203 0.03118725 10.62607951 0.00995462 12.79296875 -0.015625 C14.17448646 -0.01298164 15.5560021 -0.00785647 16.9375 0 C18.18982422 0.00451172 19.44214844 0.00902344 20.73242188 0.01367188 C24.52822832 0.62072601 25.72777645 1.45437957 27.96875 4.53125 C28.51858691 8.38010834 28.70289989 10.52325769 26.37695312 13.71679688 C23.12390317 16.16779721 20.98530589 16.04791707 16.9375 16.0625 C16.26456909 16.0663269 15.59163818 16.07015381 14.89831543 16.07409668 C13.4795583 16.0768113 12.06075073 16.06948134 10.64208984 16.05273438 C8.47509797 16.03131275 6.31142049 16.05254538 4.14453125 16.078125 C2.76301354 16.07548164 1.3814979 16.07035647 0 16.0625 C-1.25232422 16.05798828 -2.50464844 16.05347656 -3.79492188 16.04882812 C-7.59072832 15.44177399 -8.79027645 14.60812043 -11.03125 11.53125 C-11.58108691 7.68239166 -11.76539989 5.53924231 -9.43945312 2.34570312 C-6.18640317 -0.10529721 -4.04780589 0.01458293 0 0 Z " fill="#030303" transform="translate(219.03125,308.46875)"/>
<path d="M0 0 C1.83691406 -0.0009668 1.83691406 -0.0009668 3.7109375 -0.00195312 C5.61746094 0.02801758 5.61746094 0.02801758 7.5625 0.05859375 C8.83351563 0.05150391 10.10453125 0.04441406 11.4140625 0.03710938 C21.9841668 0.10943114 21.9841668 0.10943114 26.5625 3.49609375 C27.98291821 6.33693016 27.87702272 8.35086653 27.5625 11.49609375 C25.99829102 13.66040039 25.99829102 13.66040039 23.5625 15.49609375 C20.21850586 15.99780273 20.21850586 15.99780273 16.27734375 15.9921875 C15.57984512 15.99364273 14.8823465 15.99509796 14.16371155 15.99659729 C12.69365244 15.99494164 11.2235754 15.98341752 9.75366211 15.96264648 C7.50364685 15.93364076 5.25598197 15.94205175 3.00585938 15.95507812 C1.57550939 15.94884167 0.14516683 15.94045145 -1.28515625 15.9296875 C-2.58461182 15.91993896 -3.88406738 15.91019043 -5.22290039 15.90014648 C-8.4375 15.49609375 -8.4375 15.49609375 -10.35327148 14.21508789 C-11.8861442 11.78478913 -11.9009447 9.34910221 -12.03125 6.53125 C-10.38296877 0.8815492 -5.18152347 -0.00861091 0 0 Z " fill="#060606" transform="translate(288.4375,247.50390625)"/>
<path d="M0 0 C1.27101562 -0.00257813 2.54203125 -0.00515625 3.8515625 -0.0078125 C15.61602394 0.11602394 15.61602394 0.11602394 20 4.5 C20.58379036 10.68817781 20.58379036 10.68817781 18.41992188 13.69726562 C15.15746208 16.12765335 13.01289373 16.01668026 8.96875 16.03125 C8.29581909 16.0350769 7.62288818 16.03890381 6.92956543 16.04284668 C5.5108083 16.0455613 4.09200073 16.03823134 2.67333984 16.02148438 C0.50634797 16.00006275 -1.65732951 16.02129538 -3.82421875 16.046875 C-5.20573646 16.04423164 -6.5872521 16.03910647 -7.96875 16.03125 C-9.22107422 16.02673828 -10.47339844 16.02222656 -11.76367188 16.01757812 C-15.55111999 15.41186071 -16.73989838 14.54574281 -19 11.5 C-19.72319991 7.72328936 -19.37638255 6.10309769 -17.33984375 2.83984375 C-12.84280789 -1.42021105 -5.73934133 -0.12805833 0 0 Z " fill="#070707" transform="translate(227,368.5)"/>
<path d="M0 0 C0.65073486 0.00091644 1.30146973 0.00183289 1.97192383 0.0027771 C3.34366173 0.00880179 4.71538717 0.02451425 6.08691406 0.04931641 C8.18083431 0.08582129 10.27298221 0.09033558 12.3671875 0.08984375 C23.79699811 0.1739671 23.79699811 0.1739671 27.1875 2.4609375 C28.73336876 5.55267502 28.48109521 8.05523302 28.1875 11.4609375 C25.98221765 14.49894365 24.78362085 15.3658266 21.04296875 15.96264648 C19.83253906 15.96079346 18.62210938 15.95894043 17.375 15.95703125 C16.72426514 15.95848648 16.07353027 15.95994171 15.40307617 15.96144104 C14.03136707 15.95978583 12.65963868 15.94826646 11.28808594 15.92749023 C9.19385539 15.8985254 7.10215742 15.90688755 5.0078125 15.91992188 C3.67186275 15.91368389 2.33592097 15.90529247 1 15.89453125 C-0.21042969 15.88478271 -1.42085937 15.87503418 -2.66796875 15.86499023 C-6.03071147 15.43289868 -7.419626 14.81056679 -9.8125 12.4609375 C-10.5625 10.55859375 -10.5625 10.55859375 -10.8125 8.5234375 C-10.915625 7.85441406 -11.01875 7.18539063 -11.125 6.49609375 C-10.19644494 0.44887893 -5.17896417 -0.0351607 0 0 Z " fill="#030303" transform="translate(149.8125,308.5390625)"/>
<path d="M0 0 C1.27101562 -0.00257813 2.54203125 -0.00515625 3.8515625 -0.0078125 C15.61602394 0.11602394 15.61602394 0.11602394 20 4.5 C20.58379036 10.68817781 20.58379036 10.68817781 18.41992188 13.69726562 C15.15746208 16.12765335 13.01289373 16.01668026 8.96875 16.03125 C8.29581909 16.0350769 7.62288818 16.03890381 6.92956543 16.04284668 C5.5108083 16.0455613 4.09200073 16.03823134 2.67333984 16.02148438 C0.50634797 16.00006275 -1.65732951 16.02129538 -3.82421875 16.046875 C-5.20573646 16.04423164 -6.5872521 16.03910647 -7.96875 16.03125 C-9.22107422 16.02673828 -10.47339844 16.02222656 -11.76367188 16.01757812 C-15.55111999 15.41186071 -16.73989838 14.54574281 -19 11.5 C-19.72319991 7.72328936 -19.37638255 6.10309769 -17.33984375 2.83984375 C-12.84280789 -1.42021105 -5.73934133 -0.12805833 0 0 Z " fill="#060606" transform="translate(227,247.5)"/>
<path d="M0 0 C0.67293091 -0.0038269 1.34586182 -0.00765381 2.03918457 -0.01159668 C3.4579417 -0.0143113 4.87674927 -0.00698134 6.29541016 0.00976562 C8.46240203 0.03118725 10.62607951 0.00995462 12.79296875 -0.015625 C14.17448646 -0.01298164 15.5560021 -0.00785647 16.9375 0 C18.18982422 0.00451172 19.44214844 0.00902344 20.73242188 0.01367188 C24.5187942 0.61921724 25.71788498 1.4774934 27.96875 4.53125 C28.47222322 7.98363782 28.38431154 9.79907014 26.65625 12.84375 C22.38095285 17.11904715 15.19122594 15.79313413 9.57202148 15.82641602 C8.21319178 15.8379577 6.85440819 15.85844454 5.49584961 15.88793945 C3.53011325 15.93060549 1.56381359 15.94418055 -0.40234375 15.95703125 C-2.1646936 15.97890503 -2.1646936 15.97890503 -3.96264648 16.0012207 C-7.66691153 15.43389552 -8.82905321 14.51683432 -11.03125 11.53125 C-11.58108691 7.68239166 -11.76539989 5.53924231 -9.43945312 2.34570312 C-6.18640317 -0.10529721 -4.04780589 0.01458293 0 0 Z " fill="#020202" transform="translate(288.03125,308.46875)"/>
<path d="M0 0 C1.23685547 -0.020625 2.47371094 -0.04125 3.74804688 -0.0625 C5.53758789 -0.07023438 5.53758789 -0.07023438 7.36328125 -0.078125 C9.0016394 -0.09214355 9.0016394 -0.09214355 10.6730957 -0.10644531 C14.36464982 0.33007117 17.0403189 1.6028189 19.6875 4.25 C20.15839377 11.54885342 20.15839377 11.54885342 18.61401367 13.84838867 C15.67406802 15.98730997 13.13137453 15.65661487 9.53515625 15.68359375 C8.4903434 15.69145653 8.4903434 15.69145653 7.42442322 15.69947815 C5.95264009 15.70589525 4.48080566 15.70456529 3.0090332 15.69604492 C0.76094844 15.68754141 -1.48458866 15.71628321 -3.73242188 15.74804688 C-5.16406174 15.74965925 -6.59570609 15.74908066 -8.02734375 15.74609375 C-9.32792725 15.74794678 -10.62851074 15.7497998 -11.96850586 15.75170898 C-15.3125 15.25 -15.3125 15.25 -17.73657227 13.40649414 C-19.3125 11.25 -19.3125 11.25 -19.8125 8.25 C-19.20695555 4.61673332 -18.1566085 3.50855675 -15.3125 1.25 C-10.8830385 -0.96473075 -4.8639539 0.02008861 0 0 Z " fill="#060606" transform="translate(158.3125,247.75)"/>
<path d="M0 0 C1.23685547 -0.020625 2.47371094 -0.04125 3.74804688 -0.0625 C5.53758789 -0.07023437 5.53758789 -0.07023437 7.36328125 -0.078125 C9.0016394 -0.09214355 9.0016394 -0.09214355 10.6730957 -0.10644531 C14.36464982 0.33007117 17.0403189 1.6028189 19.6875 4.25 C20.15839377 11.54885342 20.15839377 11.54885342 18.61401367 13.84838867 C15.67406802 15.98730997 13.13137453 15.65661487 9.53515625 15.68359375 C8.4903434 15.69145653 8.4903434 15.69145653 7.42442322 15.69947815 C5.95264009 15.70589525 4.48080566 15.70456529 3.0090332 15.69604492 C0.76094844 15.68754141 -1.48458866 15.71628321 -3.73242188 15.74804688 C-5.16406174 15.74965925 -6.59570609 15.74908066 -8.02734375 15.74609375 C-9.32792725 15.74794678 -10.62851074 15.7497998 -11.96850586 15.75170898 C-15.3125 15.25 -15.3125 15.25 -17.73657227 13.40649414 C-19.3125 11.25 -19.3125 11.25 -19.8125 8.25 C-19.20695555 4.61673332 -18.1566085 3.50855675 -15.3125 1.25 C-10.8830385 -0.96473075 -4.8639539 0.02008861 0 0 Z " fill="#060606" transform="translate(158.3125,368.75)"/>
<path d="M0 0 C2.01822917 0.06510417 4.03645833 0.13020833 6.0546875 0.1953125 C5.0646875 0.5253125 4.0746875 0.8553125 3.0546875 1.1953125 C3.0546875 25.6153125 3.0546875 50.0353125 3.0546875 75.1953125 C4.0446875 75.5253125 5.0346875 75.8553125 6.0546875 76.1953125 C0 76.390625 0 76.390625 -1.9453125 76.1953125 C-4.80215856 73.33846644 -4.19908299 71.39176329 -4.20410156 67.390625 C-4.2076062 66.69128845 -4.21111084 65.9919519 -4.21472168 65.27142334 C-4.22354126 62.95428612 -4.2176892 60.63745295 -4.2109375 58.3203125 C-4.21228409 56.71370383 -4.21422457 55.10709555 -4.21673584 53.50048828 C-4.2196874 50.13114548 -4.21538847 46.76190863 -4.20605469 43.39257812 C-4.19466008 39.06791756 -4.20121939 34.74350521 -4.21319962 30.41885376 C-4.22041738 27.1006482 -4.21813069 23.78250175 -4.21294403 20.46429443 C-4.2116073 18.8694455 -4.21325608 17.27459125 -4.21790314 15.67974854 C-4.22296706 13.45302052 -4.21526038 11.22669774 -4.20410156 9 C-4.20251038 7.73140137 -4.20091919 6.46280273 -4.19927979 5.15576172 C-3.91627178 1.85679025 -3.5062337 0.3520315 0 0 Z " fill="#404255" transform="translate(93.9453125,21.8046875)"/>
<path d="M0 0 C-0.99 0.33 -1.98 0.66 -3 1 C-3 25.42 -3 49.84 -3 75 C-1.68 75.33 -0.36 75.66 1 76 C-0.45742463 76.08096803 -1.91612807 76.13917774 -3.375 76.1875 C-4.18710938 76.22230469 -4.99921875 76.25710937 -5.8359375 76.29296875 C-6.55007812 76.19628906 -7.26421875 76.09960938 -8 76 C-10.42865455 72.35701818 -10.25837117 70.62161049 -10.2746582 66.28125 C-10.27976913 65.60288086 -10.28488007 64.92451172 -10.29014587 64.22558594 C-10.3040441 61.98363418 -10.3030852 59.7419897 -10.30078125 57.5 C-10.30466766 55.94205613 -10.30900221 54.38411331 -10.31376648 52.82617188 C-10.32122887 49.56116297 -10.32093701 46.2962622 -10.31567383 43.03125 C-10.30987474 38.84451427 -10.32682034 34.65822028 -10.3500185 30.47155762 C-10.36473932 27.25453091 -10.36562989 24.03761106 -10.36250877 20.82055664 C-10.36302268 19.27676518 -10.36827337 17.73296784 -10.37832069 16.18920898 C-10.39063826 14.03209575 -10.38392295 11.87584904 -10.37231445 9.71875 C-10.37294388 8.49091797 -10.3735733 7.26308594 -10.3742218 5.99804688 C-10 3 -10 3 -8.7071991 1.09179688 C-5.93441488 -0.68146856 -3.19066132 -0.18060347 0 0 Z " fill="#3F4154" transform="translate(224,22)"/>
<path d="M0 0 C3.69230769 0.69230769 3.69230769 0.69230769 5 2 C5.10491235 4.22844471 5.13857212 6.46025923 5.14526367 8.69116211 C5.15030159 9.73994789 5.15030159 9.73994789 5.15544128 10.80992126 C5.16497793 13.13241326 5.16689575 15.45483337 5.16796875 17.77734375 C5.17117947 19.38538137 5.1745434 20.99341869 5.17805481 22.60145569 C5.18405289 25.97674232 5.18589402 29.35200333 5.18530273 32.72729492 C5.18520108 37.059813 5.19885383 41.39216733 5.21607494 45.72464657 C5.22717452 49.04713196 5.22922257 52.36957751 5.22869301 55.69207954 C5.2298762 57.28972501 5.23431682 58.8873714 5.24202538 60.4849987 C5.25178422 62.71659806 5.24896372 64.94783866 5.24291992 67.17944336 C5.24434494 68.4510582 5.24576996 69.72267303 5.24723816 71.03282166 C5 74 5 74 3 76 C0.875 75.625 0.875 75.625 -1 75 C-1.02312465 65.36887288 -1.04091571 55.73775526 -1.05181217 46.10660648 C-1.05704074 41.63494451 -1.06413789 37.16330147 -1.07543945 32.69165039 C-1.08626929 28.37988027 -1.09227704 24.06812841 -1.09487724 19.75634575 C-1.09673132 18.10763702 -1.1003516 16.45892934 -1.10573006 14.81022835 C-1.11294178 12.50896128 -1.11399089 10.2077706 -1.11352539 7.90649414 C-1.115746 6.5941127 -1.11796661 5.28173126 -1.12025452 3.92958069 C-1 1 -1 1 0 0 Z " fill="#57595F" transform="translate(346,22)"/>
<path d="M0 0 C4.29 0 8.58 0 13 0 C13 3.96 13 7.92 13 12 C70.75 12 128.5 12 188 12 C188 12.33 188 12.66 188 13 C125.96 13 63.92 13 0 13 C0 8.71 0 4.42 0 0 Z " fill="#D96C6A" transform="translate(15,182)"/>
<path d="M0 0 C0.33 0 0.66 0 1 0 C0.56330642 5.45866973 -0.43887902 8.79970346 -4 13 C-7.69497995 16.11328687 -11.21544778 18.29308401 -16.125 18.5 C-22.74202177 17.64619074 -26.6844486 15.03480997 -31 10 C-32.49358066 7.21650877 -33.13166898 5.81195874 -32.625 2.6875 C-32.41875 2.130625 -32.2125 1.57375 -32 1 C-31.071875 1.639375 -30.14375 2.27875 -29.1875 2.9375 C-23.12167903 6.86244298 -17.04245088 6.62285827 -10 6 C-6.06293503 4.73365746 -2.95036465 2.95036465 0 0 Z " fill="#3E4052" transform="translate(361,106)"/>
<path d="M0 0 C0.74830078 0.54140625 0.74830078 0.54140625 1.51171875 1.09375 C8.22577363 5.43317506 14.12895165 5.95468199 22 5 C24.66854747 4.26672956 26.5466923 3.35714894 29 2 C29.804375 1.608125 30.60875 1.21625 31.4375 0.8125 C31.953125 0.544375 32.46875 0.27625 33 0 C33.47854518 3.92407049 33.08597105 6.37420883 30.9375 9.625 C27.62138303 13.81426821 24.13279648 16.4016641 18.83203125 17.4140625 C12.76194402 17.81107337 8.5680542 15.92873285 4 12 C1.1799678 8.68646217 0.07184476 6.96990431 -0.25 2.625 C-0.12625 1.325625 -0.12625 1.325625 0 0 Z " fill="#3E4053" transform="translate(80,107)"/>
<path d="M0 0 C1.69270833 1.00911458 3.38541667 2.01822917 5.078125 3.02734375 C10.61392304 5.82899763 16.95094979 5.58788723 23 5 C26.00753736 3.96291815 28.25880636 2.67517389 31 1 C31.66 0.67 32.32 0.34 33 0 C32.67277993 6.32625465 31.7600501 9.45150768 27 14 C22.52026394 16.9864907 18.30184573 17.8935695 13 17 C7.82375484 15.249488 3.75414834 12.84730108 1 8 C0.4111864 5.29749655 0.18813518 2.77499385 0 0 Z " fill="#3F4153" transform="translate(204,107)"/>
<path d="M0 0 C3.96 0 7.92 0 12 0 C12 4.29 12 8.58 12 13 C8.04 13 4.08 13 0 13 C0 8.71 0 4.42 0 0 Z " fill="#DA6262" transform="translate(15,182)"/>
<path d="M0 0 C0.33 0 0.66 0 1 0 C1.66 5.61 2.32 11.22 3 17 C2.34 17 1.68 17 1 17 C1 57.59 1 98.18 1 140 C0.67 140 0.34 140 0 140 C0 93.8 0 47.6 0 0 Z " fill="#949494" transform="translate(455,190)"/>
<path d="M0 0 C1.010625 0.61875 2.02125 1.2375 3.0625 1.875 C5.78645753 3.47635685 7.41719125 4.07912248 10.625 4.6875 C15.08795417 6.42309329 15.96038607 8.70852498 17.95703125 12.90625 C18.93451828 15.14628122 18.93451828 15.14628122 21 17 C14.60892094 17.45650565 10.34978192 16.61792347 5 13 C0.69349444 9.0247641 0.38037978 5.6106018 0 0 Z " fill="#2C2F3E" transform="translate(204,107)"/>
<path d="M0 0 C0.88751953 0.52400391 0.88751953 0.52400391 1.79296875 1.05859375 C2.97826172 1.74115234 2.97826172 1.74115234 4.1875 2.4375 C4.96480469 2.88996094 5.74210937 3.34242187 6.54296875 3.80859375 C8.95348065 5.12539334 8.95348065 5.12539334 11.65625 5.4140625 C14 6 14 6 15.36328125 7.77734375 C15.67652344 8.49019531 15.98976563 9.20304687 16.3125 9.9375 C16.80169922 11.00291016 16.80169922 11.00291016 17.30078125 12.08984375 C18 14 18 14 18 16 C18.99 16.33 19.98 16.66 21 17 C14.90479473 17.63491722 10.78535816 17.07008912 5.73046875 13.48828125 C3.12054605 11.2436299 1.51267365 9.08837536 0 6 C-0.25 2.625 -0.25 2.625 0 0 Z " fill="#2C2F3E" transform="translate(80,107)"/>
<path d="M0 0 C0.66386719 0.33773437 1.32773437 0.67546875 2.01171875 1.0234375 C2.89472656 1.46945313 3.77773438 1.91546875 4.6875 2.375 C5.55761719 2.81585938 6.42773438 3.25671875 7.32421875 3.7109375 C9.95855104 5.04689168 9.95855104 5.04689168 12.6953125 5.9140625 C15.48532939 7.22868063 16.00941163 8.20139706 17.1875 11 C18.30686333 13.59120704 18.96981115 14.96981115 21 17 C13.85872553 17.36937627 9.8249243 16.43970735 4.25 11.625 C0.87299939 7.68516595 0 5.18238312 0 0 Z " fill="#2D2F3F" transform="translate(328,107)"/>
</svg>
